<svg width="101" height="60" viewBox="0 0 101 60" fill="none" xmlns="http://www.w3.org/2000/svg">
<path fill-rule="evenodd" clip-rule="evenodd" d="M9.25608 0.162485C4.8897 1.43948 1.35889 6.00075 0.145021 11.9324L0.000324148 12.6399V16.5089C0.000324148 20.7652 -0.0210747 20.3758 0.283859 21.6978C0.95996 24.6328 2.37585 27.491 4.09845 29.3996C4.29563 29.6179 4.4523 29.8015 4.44695 29.8072C2.26936 32.1783 0.821377 35.1438 0.109611 38.6911L0.000324148 39.2354V43.1161V46.9971L0.146804 47.6901C1.41341 53.6874 4.90295 58.1908 9.25608 59.4451C9.86518 59.6205 13.5802 59.5775 14.2137 59.3876C18.0128 58.2494 21.058 54.6761 22.6984 49.4322C23.8491 45.7528 26.1168 43.4668 28.931 43.1494C29.7032 43.0624 70.966 43.0635 71.7564 43.1508C74.6547 43.47 76.8267 45.7329 78.0851 49.7442C79.631 54.6719 82.6945 58.1972 86.4661 59.3883C87.1916 59.6176 90.8778 59.6176 91.6033 59.3883C100.169 56.683 103.838 42.652 98.5147 32.9555C97.9812 31.9834 96.5867 30.0589 96.308 29.9101C96.2107 29.8579 96.2443 29.8025 96.6759 29.3059C100.928 24.4095 102.218 15.9995 99.7667 9.15401C98.0757 4.43157 94.8116 0.986836 91.1848 0.0971619C90.5828 -0.0505253 87.347 -0.023189 86.7784 0.134084C82.8031 1.23428 79.7015 4.75251 78.0189 10.071C76.8983 13.6123 75.0279 15.6966 72.3487 16.3893C71.8988 16.5057 29.816 16.5764 28.8966 16.4624C26.06 16.1106 23.8519 13.853 22.6742 10.1008C21.0448 4.90942 18.0551 1.43416 14.1388 0.179171C13.477 -0.0327745 9.96504 -0.044845 9.25608 0.162485ZM14.0543 8.05559C15.8614 8.89592 16.859 11.5333 16.5836 14.7427C16.466 16.1138 16.1911 17.4795 15.595 19.6529C14.9375 22.0497 14.711 22.9731 14.4478 24.331C14.4259 24.445 14.3903 24.5316 14.3689 24.5238C14.3475 24.5163 14.1006 24.4013 13.8204 24.2685C13.2727 24.009 12.3263 23.6614 11.103 23.2706C6.59065 21.8292 4.6994 19.7506 4.69329 16.2249C4.68718 12.6247 7.39795 10.2148 9.42829 12.0151L9.74927 12.2998L9.75309 11.8163C9.775 9.01982 11.9806 7.09136 14.0543 8.05559Z" fill="#50257C"/>
<path d="M11.8807 35V27.7273H16.2415V28.5085H12.7614V30.9659H15.9148V31.7472H12.7614V35H11.8807ZM19.2413 35.1278C18.8957 35.1278 18.582 35.0627 18.3002 34.9325C18.0185 34.8 17.7948 34.6094 17.6291 34.3608C17.4634 34.1098 17.3805 33.8068 17.3805 33.4517C17.3805 33.1392 17.4421 32.8859 17.5652 32.6918C17.6883 32.4953 17.8528 32.3414 18.0588 32.2301C18.2647 32.1188 18.492 32.036 18.7406 31.9815C18.9915 31.9247 19.2437 31.8797 19.497 31.8466C19.8284 31.804 20.0971 31.772 20.3031 31.7507C20.5114 31.727 20.6629 31.688 20.7576 31.6335C20.8547 31.5791 20.9032 31.4844 20.9032 31.3494V31.321C20.9032 30.9706 20.8074 30.6984 20.6156 30.5043C20.4262 30.3101 20.1386 30.2131 19.7527 30.2131C19.3526 30.2131 19.0389 30.3007 18.8116 30.4759C18.5843 30.651 18.4245 30.8381 18.3322 31.0369L17.5368 30.7528C17.6788 30.4214 17.8682 30.1634 18.1049 29.9787C18.344 29.7917 18.6045 29.6615 18.8862 29.5881C19.1703 29.5123 19.4496 29.4744 19.7243 29.4744C19.8994 29.4744 20.1007 29.4957 20.3279 29.5384C20.5576 29.5786 20.7789 29.6626 20.992 29.7905C21.2074 29.9183 21.3862 30.1113 21.5282 30.3693C21.6703 30.6274 21.7413 30.973 21.7413 31.4062V35H20.9032V34.2614H20.8606C20.8038 34.3797 20.7091 34.5064 20.5765 34.6413C20.444 34.7763 20.2676 34.8911 20.0474 34.9858C19.8272 35.0805 19.5585 35.1278 19.2413 35.1278ZM19.3691 34.375C19.7006 34.375 19.9799 34.3099 20.2072 34.1797C20.4368 34.0495 20.6097 33.8814 20.7257 33.6754C20.844 33.4695 20.9032 33.2528 20.9032 33.0256V32.2585C20.8677 32.3011 20.7896 32.3402 20.6689 32.3757C20.5505 32.4089 20.4132 32.4384 20.2569 32.4645C20.103 32.4882 19.9527 32.5095 19.8059 32.5284C19.6615 32.545 19.5443 32.5592 19.4544 32.571C19.2366 32.5994 19.033 32.6456 18.8436 32.7095C18.6565 32.7711 18.505 32.8646 18.389 32.9901C18.2754 33.1132 18.2186 33.2812 18.2186 33.4943C18.2186 33.7855 18.3263 34.0057 18.5417 34.1548C18.7595 34.3016 19.0353 34.375 19.3691 34.375ZM25.4869 35.1136C24.9755 35.1136 24.5352 34.9929 24.1658 34.7514C23.7965 34.5099 23.5124 34.1773 23.3136 33.7536C23.1147 33.3298 23.0153 32.8456 23.0153 32.3011C23.0153 31.7472 23.1171 31.2583 23.3207 30.8345C23.5266 30.4084 23.8131 30.0758 24.18 29.8366C24.5494 29.5952 24.9802 29.4744 25.4727 29.4744C25.8562 29.4744 26.2018 29.5455 26.5096 29.6875C26.8174 29.8295 27.0695 30.0284 27.266 30.2841C27.4625 30.5398 27.5844 30.8381 27.6317 31.179H26.7937C26.7298 30.9304 26.5877 30.7102 26.3675 30.5185C26.1497 30.3243 25.8562 30.2273 25.4869 30.2273C25.1602 30.2273 24.8737 30.3125 24.6275 30.483C24.3836 30.651 24.1931 30.889 24.0558 31.1967C23.9208 31.5021 23.8533 31.8608 23.8533 32.2727C23.8533 32.6941 23.9196 33.0611 24.0522 33.3736C24.1871 33.6861 24.3765 33.9287 24.6204 34.1016C24.8666 34.2744 25.1554 34.3608 25.4869 34.3608C25.7047 34.3608 25.9023 34.3229 26.0799 34.2472C26.2575 34.1714 26.4078 34.0625 26.5309 33.9205C26.654 33.7784 26.7416 33.608 26.7937 33.4091H27.6317C27.5844 33.7311 27.4672 34.0211 27.2802 34.2791C27.0955 34.5348 26.8505 34.7384 26.5451 34.8899C26.2421 35.0391 25.8893 35.1136 25.4869 35.1136ZM25.0891 34.9716H25.7852L25.7283 35.2557C25.913 35.2841 26.0823 35.361 26.2362 35.4865C26.39 35.6143 26.467 35.8168 26.467 36.0938C26.467 36.3991 26.3403 36.6477 26.087 36.8395C25.8361 37.0336 25.4656 37.1307 24.9755 37.1307L24.9471 36.5767C25.1673 36.5767 25.3496 36.5412 25.494 36.4702C25.6407 36.4015 25.7141 36.2855 25.7141 36.1222C25.7141 35.9588 25.6538 35.8475 25.533 35.7884C25.4123 35.7292 25.217 35.6889 24.9471 35.6676L25.0891 34.9716ZM30.462 35.1278C30.1164 35.1278 29.8027 35.0627 29.521 34.9325C29.2392 34.8 29.0155 34.6094 28.8498 34.3608C28.6841 34.1098 28.6012 33.8068 28.6012 33.4517C28.6012 33.1392 28.6628 32.8859 28.7859 32.6918C28.909 32.4953 29.0735 32.3414 29.2795 32.2301C29.4854 32.1188 29.7127 32.036 29.9613 31.9815C30.2122 31.9247 30.4644 31.8797 30.7177 31.8466C31.0491 31.804 31.3178 31.772 31.5238 31.7507C31.7321 31.727 31.8836 31.688 31.9783 31.6335C32.0754 31.5791 32.1239 31.4844 32.1239 31.3494V31.321C32.1239 30.9706 32.0281 30.6984 31.8363 30.5043C31.6469 30.3101 31.3593 30.2131 30.9734 30.2131C30.5733 30.2131 30.2596 30.3007 30.0323 30.4759C29.805 30.651 29.6452 30.8381 29.5529 31.0369L28.7575 30.7528C28.8995 30.4214 29.0889 30.1634 29.3256 29.9787C29.5647 29.7917 29.8252 29.6615 30.1069 29.5881C30.391 29.5123 30.6703 29.4744 30.945 29.4744C31.1201 29.4744 31.3214 29.4957 31.5487 29.5384C31.7783 29.5786 31.9996 29.6626 32.2127 29.7905C32.4281 29.9183 32.6069 30.1113 32.7489 30.3693C32.891 30.6274 32.962 30.973 32.962 31.4062V35H32.1239V34.2614H32.0813C32.0245 34.3797 31.9298 34.5064 31.7972 34.6413C31.6647 34.7763 31.4883 34.8911 31.2681 34.9858C31.0479 35.0805 30.7792 35.1278 30.462 35.1278ZM30.5898 34.375C30.9213 34.375 31.2006 34.3099 31.4279 34.1797C31.6576 34.0495 31.8304 33.8814 31.9464 33.6754C32.0647 33.4695 32.1239 33.2528 32.1239 33.0256V32.2585C32.0884 32.3011 32.0103 32.3402 31.8896 32.3757C31.7712 32.4089 31.6339 32.4384 31.4776 32.4645C31.3237 32.4882 31.1734 32.5095 31.0266 32.5284C30.8822 32.545 30.765 32.5592 30.6751 32.571C30.4573 32.5994 30.2537 32.6456 30.0643 32.7095C29.8772 32.7711 29.7257 32.8646 29.6097 32.9901C29.4961 33.1132 29.4393 33.2812 29.4393 33.4943C29.4393 33.7855 29.547 34.0057 29.7624 34.1548C29.9802 34.3016 30.256 34.375 30.5898 34.375ZM41.3951 29.5455C41.3525 29.1856 41.1796 28.9062 40.8766 28.7074C40.5736 28.5085 40.2019 28.4091 39.7615 28.4091C39.4396 28.4091 39.1578 28.4612 38.9164 28.5653C38.6773 28.6695 38.4902 28.8127 38.3553 28.995C38.2227 29.1773 38.1564 29.3845 38.1564 29.6165C38.1564 29.8106 38.2026 29.9775 38.2949 30.1172C38.3896 30.2545 38.5104 30.3693 38.6571 30.4616C38.8039 30.5516 38.9578 30.6262 39.1188 30.6854C39.2798 30.7422 39.4277 30.7884 39.5627 30.8239L40.3013 31.0227C40.4907 31.0724 40.7014 31.1411 40.9334 31.2287C41.1678 31.3163 41.3915 31.4358 41.6046 31.5874C41.82 31.7365 41.9976 31.9283 42.1373 32.1626C42.2769 32.397 42.3468 32.6847 42.3468 33.0256C42.3468 33.4186 42.2438 33.7737 42.0378 34.0909C41.8342 34.4081 41.5359 34.6603 41.1429 34.8473C40.7523 35.0343 40.2776 35.1278 39.7189 35.1278C39.1981 35.1278 38.7471 35.0438 38.3659 34.8757C37.9872 34.7076 37.6889 34.4732 37.4711 34.1726C37.2556 33.8719 37.1337 33.5227 37.1053 33.125H38.0144C38.0381 33.3996 38.1304 33.6269 38.2914 33.8068C38.4547 33.9844 38.6607 34.117 38.9093 34.2045C39.1602 34.2898 39.4301 34.3324 39.7189 34.3324C40.0551 34.3324 40.3569 34.2779 40.6245 34.169C40.892 34.0578 41.1039 33.9039 41.2601 33.7074C41.4164 33.5085 41.4945 33.2765 41.4945 33.0114C41.4945 32.7699 41.427 32.5734 41.2921 32.4219C41.1571 32.2704 40.9796 32.1473 40.7594 32.0526C40.5392 31.9579 40.3013 31.875 40.0456 31.804L39.1507 31.5483C38.5826 31.3849 38.1328 31.1518 37.8013 30.8487C37.4699 30.5457 37.3042 30.1491 37.3042 29.6591C37.3042 29.2519 37.4142 28.8968 37.6344 28.5938C37.8569 28.2884 38.1552 28.0516 38.5293 27.8835C38.9057 27.7131 39.3259 27.6278 39.79 27.6278C40.2587 27.6278 40.6754 27.7119 41.04 27.88C41.4045 28.0457 41.6934 28.273 41.9064 28.5618C42.1219 28.8506 42.2355 29.1785 42.2473 29.5455H41.3951ZM45.968 35.1136C45.4425 35.1136 44.9891 34.9976 44.608 34.7656C44.2292 34.5312 43.9368 34.2045 43.7308 33.7855C43.5272 33.3641 43.4254 32.8741 43.4254 32.3153C43.4254 31.7566 43.5272 31.2642 43.7308 30.8381C43.9368 30.4096 44.2232 30.0758 44.5902 29.8366C44.9595 29.5952 45.3904 29.4744 45.8828 29.4744C46.1669 29.4744 46.4474 29.5218 46.7244 29.6165C47.0014 29.7112 47.2536 29.8651 47.4808 30.0781C47.7081 30.2888 47.8892 30.5682 48.0241 30.9162C48.1591 31.2642 48.2266 31.6927 48.2266 32.2017V32.5568H44.022V31.8324H47.3743C47.3743 31.5246 47.3127 31.25 47.1896 31.0085C47.0689 30.767 46.8961 30.5765 46.6712 30.4368C46.4486 30.2971 46.1858 30.2273 45.8828 30.2273C45.549 30.2273 45.2602 30.3101 45.0163 30.4759C44.7749 30.6392 44.589 30.8523 44.4588 31.1151C44.3286 31.3778 44.2635 31.6596 44.2635 31.9602V32.4432C44.2635 32.8551 44.3345 33.2043 44.4766 33.4908C44.621 33.7749 44.821 33.9915 45.0767 34.1406C45.3324 34.2874 45.6295 34.3608 45.968 34.3608C46.1882 34.3608 46.3871 34.33 46.5646 34.2685C46.7446 34.2045 46.8996 34.1098 47.0298 33.9844C47.16 33.8565 47.2607 33.6979 47.3317 33.5085L48.1413 33.7358C48.0561 34.0104 47.9129 34.2519 47.7116 34.4602C47.5104 34.6662 47.2618 34.8272 46.9659 34.9432C46.67 35.0568 46.3374 35.1136 45.968 35.1136ZM52.9389 32.7699V29.5455H53.777V35H52.9389V34.0767H52.8821C52.7543 34.3537 52.5554 34.5893 52.2855 34.7834C52.0156 34.9751 51.6747 35.071 51.2628 35.071C50.9219 35.071 50.6188 34.9964 50.3537 34.8473C50.0885 34.6958 49.8802 34.4685 49.7287 34.1655C49.5772 33.8601 49.5014 33.4754 49.5014 33.0114V29.5455H50.3395V32.9545C50.3395 33.3523 50.4508 33.6695 50.6733 33.9062C50.8982 34.143 51.1847 34.2614 51.5327 34.2614C51.741 34.2614 51.9529 34.2081 52.1683 34.1016C52.3861 33.995 52.5684 33.8317 52.7152 33.6115C52.8643 33.3913 52.9389 33.1108 52.9389 32.7699ZM58.2381 35V27.7273H60.6955C61.266 27.7273 61.7324 27.8303 62.0946 28.0362C62.4592 28.2398 62.7291 28.5156 62.9043 28.8636C63.0795 29.2116 63.1671 29.5999 63.1671 30.0284C63.1671 30.4569 63.0795 30.8464 62.9043 31.1967C62.7315 31.5471 62.464 31.8265 62.1017 32.0348C61.7395 32.2408 61.2755 32.3438 60.7097 32.3438H58.9483V31.5625H60.6813C61.0719 31.5625 61.3856 31.495 61.6223 31.3601C61.8591 31.2251 62.0307 31.0429 62.1373 30.8132C62.2462 30.5812 62.3006 30.3196 62.3006 30.0284C62.3006 29.7372 62.2462 29.4768 62.1373 29.2472C62.0307 29.0175 61.8579 28.8376 61.6188 28.7074C61.3797 28.5748 61.0624 28.5085 60.6671 28.5085H59.1188V35H58.2381ZM66.7005 35.1136C66.1749 35.1136 65.7215 34.9976 65.3404 34.7656C64.9616 34.5312 64.6692 34.2045 64.4632 33.7855C64.2596 33.3641 64.1578 32.8741 64.1578 32.3153C64.1578 31.7566 64.2596 31.2642 64.4632 30.8381C64.6692 30.4096 64.9557 30.0758 65.3226 29.8366C65.6919 29.5952 66.1228 29.4744 66.6152 29.4744C66.8993 29.4744 67.1799 29.5218 67.4569 29.6165C67.7338 29.7112 67.986 29.8651 68.2132 30.0781C68.4405 30.2888 68.6216 30.5682 68.7566 30.9162C68.8915 31.2642 68.959 31.6927 68.959 32.2017V32.5568H64.7544V31.8324H68.1067C68.1067 31.5246 68.0452 31.25 67.9221 31.0085C67.8013 30.767 67.6285 30.5765 67.4036 30.4368C67.181 30.2971 66.9183 30.2273 66.6152 30.2273C66.2814 30.2273 65.9926 30.3101 65.7488 30.4759C65.5073 30.6392 65.3214 30.8523 65.1912 31.1151C65.061 31.3778 64.9959 31.6596 64.9959 31.9602V32.4432C64.9959 32.8551 65.0669 33.2043 65.209 33.4908C65.3534 33.7749 65.5534 33.9915 65.8091 34.1406C66.0648 34.2874 66.3619 34.3608 66.7005 34.3608C66.9206 34.3608 67.1195 34.33 67.2971 34.2685C67.477 34.2045 67.632 34.1098 67.7623 33.9844C67.8925 33.8565 67.9931 33.6979 68.0641 33.5085L68.8738 33.7358C68.7885 34.0104 68.6453 34.2519 68.4441 34.4602C68.2428 34.6662 67.9943 34.8272 67.6983 34.9432C67.4024 35.0568 67.0698 35.1136 66.7005 35.1136ZM72.2935 35.1136C71.839 35.1136 71.4377 34.9988 71.0897 34.7692C70.7417 34.5372 70.4694 34.2105 70.2729 33.7891C70.0764 33.3653 69.9782 32.8646 69.9782 32.2869C69.9782 31.714 70.0764 31.2169 70.2729 30.7955C70.4694 30.3741 70.7428 30.0485 71.0932 29.8189C71.4436 29.5893 71.8484 29.4744 72.3077 29.4744C72.6628 29.4744 72.9434 29.5336 73.1493 29.652C73.3577 29.768 73.5163 29.9006 73.6252 30.0497C73.7364 30.1965 73.8229 30.3172 73.8844 30.4119H73.9554V27.7273H74.7935V35H73.9838V34.1619H73.8844C73.8229 34.2614 73.7353 34.3868 73.6216 34.5384C73.508 34.6875 73.3458 34.8213 73.1351 34.9396C72.9244 35.0556 72.6439 35.1136 72.2935 35.1136ZM72.4071 34.3608C72.7433 34.3608 73.0274 34.2732 73.2594 34.098C73.4914 33.9205 73.6678 33.6754 73.7885 33.3629C73.9093 33.0481 73.9696 32.6847 73.9696 32.2727C73.9696 31.8655 73.9105 31.5092 73.7921 31.2038C73.6737 30.8961 73.4985 30.657 73.2665 30.4865C73.0345 30.3137 72.748 30.2273 72.4071 30.2273C72.052 30.2273 71.7561 30.3184 71.5194 30.5007C71.285 30.6806 71.1086 30.9257 70.9902 31.2358C70.8742 31.5436 70.8162 31.8892 70.8162 32.2727C70.8162 32.661 70.8754 33.0137 70.9938 33.331C71.1145 33.6458 71.2921 33.8968 71.5265 34.0838C71.7632 34.2685 72.0568 34.3608 72.4071 34.3608ZM76.4448 35V29.5455H77.2828V35H76.4448ZM76.8709 28.6364C76.7076 28.6364 76.5667 28.5807 76.4483 28.4695C76.3323 28.3582 76.2743 28.2244 76.2743 28.0682C76.2743 27.9119 76.3323 27.7782 76.4483 27.6669C76.5667 27.5556 76.7076 27.5 76.8709 27.5C77.0343 27.5 77.1739 27.5556 77.29 27.6669C77.4083 27.7782 77.4675 27.9119 77.4675 28.0682C77.4675 28.2244 77.4083 28.3582 77.29 28.4695C77.1739 28.5807 77.0343 28.6364 76.8709 28.6364ZM80.8775 35.1136C80.4229 35.1136 80.0217 34.9988 79.6737 34.7692C79.3256 34.5372 79.0534 34.2105 78.8569 33.7891C78.6604 33.3653 78.5621 32.8646 78.5621 32.2869C78.5621 31.714 78.6604 31.2169 78.8569 30.7955C79.0534 30.3741 79.3268 30.0485 79.6772 29.8189C80.0276 29.5893 80.4324 29.4744 80.8917 29.4744C81.2468 29.4744 81.5273 29.5336 81.7333 29.652C81.9416 29.768 82.1003 29.9006 82.2092 30.0497C82.3204 30.1965 82.4068 30.3172 82.4684 30.4119H82.5394V27.7273H83.3775V35H82.5678V34.1619H82.4684C82.4068 34.2614 82.3192 34.3868 82.2056 34.5384C82.092 34.6875 81.9298 34.8213 81.7191 34.9396C81.5084 35.0556 81.2279 35.1136 80.8775 35.1136ZM80.9911 34.3608C81.3273 34.3608 81.6114 34.2732 81.8434 34.098C82.0754 33.9205 82.2518 33.6754 82.3725 33.3629C82.4933 33.0481 82.5536 32.6847 82.5536 32.2727C82.5536 31.8655 82.4944 31.5092 82.3761 31.2038C82.2577 30.8961 82.0825 30.657 81.8505 30.4865C81.6185 30.3137 81.332 30.2273 80.9911 30.2273C80.636 30.2273 80.3401 30.3184 80.1033 30.5007C79.869 30.6806 79.6926 30.9257 79.5742 31.2358C79.4582 31.5436 79.4002 31.8892 79.4002 32.2727C79.4002 32.661 79.4594 33.0137 79.5778 33.331C79.6985 33.6458 79.8761 33.8968 80.1104 34.0838C80.3472 34.2685 80.6407 34.3608 80.9911 34.3608ZM87.2447 35.1136C86.7522 35.1136 86.3202 34.9964 85.9485 34.7621C85.5792 34.5277 85.2904 34.1998 85.082 33.7784C84.8761 33.357 84.7731 32.8646 84.7731 32.3011C84.7731 31.733 84.8761 31.237 85.082 30.8132C85.2904 30.3894 85.5792 30.0604 85.9485 29.826C86.3202 29.5916 86.7522 29.4744 87.2447 29.4744C87.7371 29.4744 88.168 29.5916 88.5373 29.826C88.909 30.0604 89.1978 30.3894 89.4038 30.8132C89.6121 31.237 89.7163 31.733 89.7163 32.3011C89.7163 32.8646 89.6121 33.357 89.4038 33.7784C89.1978 34.1998 88.909 34.5277 88.5373 34.7621C88.168 34.9964 87.7371 35.1136 87.2447 35.1136ZM87.2447 34.3608C87.6187 34.3608 87.9265 34.2649 88.168 34.0732C88.4094 33.8814 88.5882 33.6293 88.7042 33.3168C88.8202 33.0043 88.8782 32.6657 88.8782 32.3011C88.8782 31.9366 88.8202 31.5968 88.7042 31.282C88.5882 30.9671 88.4094 30.7126 88.168 30.5185C87.9265 30.3243 87.6187 30.2273 87.2447 30.2273C86.8706 30.2273 86.5629 30.3243 86.3214 30.5185C86.0799 30.7126 85.9012 30.9671 85.7852 31.282C85.6692 31.5968 85.6112 31.9366 85.6112 32.3011C85.6112 32.6657 85.6692 33.0043 85.7852 33.3168C85.9012 33.6293 86.0799 33.8814 86.3214 34.0732C86.5629 34.2649 86.8706 34.3608 87.2447 34.3608Z" fill="white"/>
</svg>
