<svg width="396" height="74" viewBox="0 0 396 74" fill="none" xmlns="http://www.w3.org/2000/svg">
<path fill-rule="evenodd" clip-rule="evenodd" d="M2.66698 0.115859C1.96198 0.249859 1.95898 0.434859 2.65798 0.643859C3.04698 0.760859 3.44898 1.02986 3.62098 1.28886C3.78398 1.53386 4.33698 2.14986 4.85098 2.65886C6.62898 4.41686 6.53898 2.96586 6.51098 29.4999L6.48598 52.0829L6.09098 53.6379C5.66198 55.3239 5.44798 55.6539 4.38298 56.2789C3.99698 56.5049 3.63398 56.8409 3.57498 57.0269C3.45298 57.4089 2.75198 57.7409 1.69698 57.9149C1.30098 57.9799 1.02298 58.0779 1.07798 58.1329C1.21998 58.2749 17.179 58.2819 17.267 58.1399C17.412 57.9039 16.918 57.7789 15.995 57.8159C15.103 57.8529 15.022 57.8229 14.606 57.3019C14.039 56.5939 14.005 56.5609 13.454 56.1479C13.199 55.9579 12.842 55.5279 12.661 55.1929C12.48 54.8569 12.175 54.3869 11.984 54.1479C11.4 53.4179 11.351 51.1589 11.385 26.7339C11.42 1.35886 11.338 3.28186 12.405 2.69686C13.087 2.32286 22.958 2.28286 24.583 2.64786C25.806 2.92286 27.865 4.00586 28.704 4.81686C29.045 5.14686 29.503 5.57186 29.722 5.76186C29.941 5.95186 30.255 6.51286 30.42 7.00886C30.584 7.50386 30.884 8.03986 31.087 8.19886C31.602 8.60486 31.79 9.17986 32 10.9959C32.1 11.8639 32.284 12.6889 32.408 12.8289C33.156 13.6729 33.15 17.7739 32.399 18.9209C32.271 19.1149 32.046 19.9269 31.898 20.7239C31.727 21.6459 31.487 22.3689 31.238 22.7109C31.023 23.0079 30.691 23.5329 30.501 23.8799C29.978 24.8309 27.962 26.7619 26.966 27.2659C26.481 27.5109 25.91 27.8469 25.699 28.0119C25.151 28.4399 23.891 28.8269 22.206 29.0829C21.405 29.2039 20.45 29.3839 20.083 29.4809C19.717 29.5789 18.882 29.6609 18.229 29.6629C17.002 29.6669 16.806 29.7609 16.595 30.4499C16.458 30.8979 17.133 31.1199 19.333 31.3509C20.113 31.4329 21.164 31.5459 21.67 31.6029C23.292 31.7849 27.592 31.0769 28.497 30.4799C28.907 30.2089 29.634 29.8729 30.112 29.7349C31.097 29.4479 32.463 28.4209 33.84 26.9319C34.34 26.3909 34.964 25.7539 35.225 25.5159C35.486 25.2779 35.814 24.8579 35.952 24.5829C36.091 24.3079 36.378 23.8959 36.59 23.6669C36.802 23.4379 37.14 22.7619 37.342 22.1669C37.543 21.5709 37.867 20.8209 38.062 20.4999C38.392 19.9569 38.42 19.6479 38.469 16.0359L38.522 12.1549L38.024 11.1189C37.751 10.5499 37.373 9.55786 37.185 8.91686C36.987 8.24386 36.712 7.66886 36.534 7.55786C36.364 7.45286 36.114 7.13786 35.979 6.85886C35.391 5.64586 33.379 3.58886 32.127 2.92086C31.645 2.66286 31.1 2.32086 30.917 2.15986C30.549 1.83886 27.624 0.858859 25.667 0.403859C24.456 0.120859 3.98598 -0.135141 2.66698 0.115859ZM139.667 0.128858C138.371 0.208858 138.293 0.433858 139.514 0.571858C140.61 0.695858 140.78 0.809859 142.718 2.73786C144.11 4.12286 143.992 1.67586 143.996 29.1849L144 53.6199L143.29 54.6829C142.819 55.3869 142.34 55.8779 141.869 56.1369C141.41 56.3909 141.076 56.7279 140.924 57.0919C140.673 57.6909 140.432 57.7989 139.167 57.8729C138.754 57.8969 138.435 57.9899 138.458 58.0789C138.503 58.2549 153.734 58.3299 154.917 58.1609C155.5 58.0769 155.418 58.0489 154.256 57.9319C152.573 57.7619 152.178 57.6079 151.961 57.0329C151.864 56.7749 151.419 56.3259 150.961 56.0229C150.297 55.5839 150.032 55.2579 149.609 54.3629L149.083 53.2499L149.041 42.8329L148.999 32.4169L149.377 31.7549C149.585 31.3909 150.009 30.9219 150.319 30.7129L150.883 30.3329L166.233 30.3359L181.583 30.3389L182.241 30.7109C183.604 31.4839 183.535 30.8469 183.527 42.5599C183.523 48.2729 183.468 53.1659 183.405 53.4319C183.15 54.5149 182.369 55.5949 181.494 56.0699C181.028 56.3239 180.584 56.6969 180.507 56.8979C180.29 57.4699 179.91 57.6939 178.961 57.8089C176.465 58.1139 178.59 58.2499 185.958 58.2579C193.517 58.2659 195.601 58.1799 193.75 57.9359C192.055 57.7129 191.772 57.6059 191.505 57.0829C191.365 56.8079 191.152 56.5209 191.032 56.4439C190.263 55.9549 189.592 55.1389 189.045 54.0269L188.417 52.7499L188.427 28.9169L188.437 5.08286L189.051 3.88186C189.46 3.08086 189.865 2.54386 190.263 2.27286C190.593 2.04886 190.978 1.70086 191.12 1.49786C191.437 1.04486 192.577 0.509858 193.25 0.498858C193.715 0.489858 193.727 0.475858 193.417 0.286858C192.746 -0.120142 178.167 -0.0601408 178.167 0.349859C178.167 0.432859 178.465 0.499859 178.83 0.499859C179.522 0.499859 180.833 0.937859 180.833 1.16986C180.833 1.24386 181.238 1.71786 181.733 2.22486C182.227 2.73186 182.841 3.57286 183.097 4.09486L183.561 5.04386L183.572 15.8429C183.585 27.9979 183.677 27.1149 182.316 27.9169C181.761 28.2439 181.45 28.2499 166.243 28.2499C148.831 28.2499 150.273 28.3569 149.416 26.9989L149 26.3399V15.6929V5.04586L149.493 3.95786C149.784 3.31786 150.201 2.70786 150.507 2.47586C150.793 2.25986 151.227 1.88186 151.472 1.63586C151.982 1.12186 153.319 0.506858 153.972 0.484858C154.305 0.473858 154.22 0.415858 153.638 0.255858C152.91 0.0548583 142.412 -0.0401415 139.667 0.128858ZM307.233 13.2649C306.929 13.9929 306.98 20.0469 307.294 20.3599C307.619 20.6849 307.798 20.3449 307.915 19.1869C308.223 16.1159 309.207 15.7869 317.856 15.8649C324.059 15.9209 324.54 15.9879 325.021 16.8609C325.304 17.3759 325.294 53.5269 325.01 54.3859C324.911 54.6859 324.418 55.3379 323.915 55.8349C323.412 56.3319 323 56.8569 323 57.0029C323 57.4449 322.634 57.6669 321.902 57.6669C321.279 57.6669 319.837 58.1149 320.25 58.1799C320.849 58.2749 333.871 58.2459 334.027 58.1499C334.209 58.0369 333.622 57.8269 332.447 57.5849C332.178 57.5289 331.867 57.2949 331.717 57.0359C331.574 56.7869 331.131 56.3219 330.731 56.0029C329.617 55.1119 329.672 56.1519 329.664 35.7939C329.655 14.6549 329.52 16.5309 331.082 16.0769C332.473 15.6719 344.067 15.7789 344.674 16.2019C345.898 17.0539 346.53 17.7799 346.821 18.6679L347.121 19.5829L347.223 18.7499C347.279 18.2919 347.374 17.3169 347.433 16.5829C347.496 15.8129 347.674 14.9889 347.854 14.6329L348.165 14.0159L347.624 13.6079C347.127 13.2339 347.015 13.2139 346.25 13.3699C345.728 13.4769 338.94 13.5639 328.083 13.6039C309.639 13.6719 309.5 13.6669 307.953 12.8859C307.499 12.6569 307.483 12.6659 307.233 13.2649ZM106.417 12.9389C105.828 13.0049 102.543 13.4459 101.018 13.6649C100.432 13.7489 99.569 14.0079 99.101 14.2409C98.633 14.4739 97.749 14.8159 97.138 15.0019C96.526 15.1869 95.647 15.5939 95.184 15.9049C94.721 16.2159 94.06 16.5629 93.713 16.6759C93.367 16.7879 92.836 17.1319 92.534 17.4399C92.231 17.7479 91.888 17.9999 91.772 17.9999C91.468 17.9999 87.833 21.5879 87.833 21.8879C87.833 22.0249 87.616 22.3199 87.351 22.5429C87.085 22.7659 86.739 23.2039 86.582 23.5159C86.425 23.8279 86.088 24.3079 85.835 24.5829C85.581 24.8579 85.242 25.4959 85.081 25.9999C84.92 26.5039 84.542 27.4039 84.241 27.9999C83.809 28.8539 83.617 29.5759 83.33 31.4169C83.129 32.6999 82.903 34.0869 82.826 34.4999C82.654 35.4219 82.779 37.5459 83.09 39.0079C83.218 39.6089 83.397 40.7619 83.489 41.5709C83.617 42.6979 83.789 43.2999 84.223 44.1459C84.534 44.7529 84.879 45.5289 84.989 45.8689C85.099 46.2099 85.521 46.9159 85.928 47.4399C86.334 47.9629 86.667 48.4939 86.667 48.6199C86.667 48.7459 86.854 49.0359 87.083 49.2639C87.311 49.4929 87.622 49.9209 87.773 50.2149C88.196 51.0399 91.115 53.7679 91.872 54.0459C92.08 54.1219 92.475 54.3939 92.75 54.6509C93.427 55.2809 96.522 56.8909 97.723 57.2369C98.258 57.3909 99.12 57.7379 99.639 58.0059C102.002 59.2289 113.03 59.2379 115.472 58.0199C115.992 57.7599 116.978 57.3799 117.665 57.1739C118.351 56.9679 119.118 56.6529 119.369 56.4739C119.621 56.2949 120.329 55.9209 120.943 55.6429C121.557 55.3639 122.203 54.9539 122.379 54.7299C122.554 54.5069 122.991 54.1749 123.349 53.9919C124.068 53.6249 127.167 50.5729 127.167 50.2319C127.167 50.1139 127.422 49.8219 127.734 49.5839C128.046 49.3459 128.347 48.9689 128.403 48.7459C128.459 48.5219 128.719 48.0939 128.98 47.7949C129.492 47.2069 130.166 45.9809 130.168 45.6319C130.168 45.5129 130.269 45.2289 130.392 44.9999C130.515 44.7709 130.777 44.2789 130.975 43.9079C131.215 43.4539 131.441 42.4529 131.662 40.8639C131.843 39.5619 132.106 38.0559 132.246 37.5159C132.566 36.2809 132.565 35.3329 132.243 34.1669C132.104 33.6619 131.843 32.2749 131.664 31.0829C131.414 29.4169 131.221 28.6929 130.833 27.9499C130.555 27.4179 130.169 26.5179 129.976 25.9499C129.783 25.3819 129.451 24.7289 129.238 24.4999C129.025 24.2709 128.727 23.7829 128.575 23.4169C128.269 22.6749 123.678 17.9999 123.257 17.9999C123.122 17.9999 122.765 17.7849 122.464 17.5219C122.163 17.2589 121.429 16.8009 120.833 16.5039C120.237 16.2069 119.6 15.8309 119.417 15.6699C119.233 15.5079 118.558 15.2059 117.917 14.9979C117.275 14.7909 116.45 14.4509 116.083 14.2419C115.341 13.8209 114.204 13.5699 112.333 13.4139C111.646 13.3569 110.494 13.2029 109.773 13.0719C108.541 12.8469 107.579 12.8089 106.417 12.9389ZM227.537 13.4239C226.974 13.6009 224.13 13.6609 213.945 13.7109C206.861 13.7449 200.971 13.8309 200.858 13.9019C200.434 14.1639 201.009 14.4999 201.88 14.4999C202.657 14.4999 202.771 14.5549 203.402 15.2299C203.777 15.6309 204.251 16.0459 204.457 16.1509C205.464 16.6689 205.412 15.6829 205.468 35.3329C205.526 55.7039 205.575 54.8159 204.326 55.9999C203.89 56.4119 203.507 56.8979 203.474 57.0789C203.388 57.5459 202.726 57.8279 201.708 57.8309C201.088 57.8329 200.833 57.8989 200.833 58.0569C200.833 58.2429 203.222 58.2779 214.875 58.2629L228.917 58.2449L229.608 57.7979C230.126 57.4629 230.371 57.1509 230.587 56.5499C230.746 56.1099 231.085 55.2999 231.34 54.7499C231.895 53.5509 232.203 52.0459 231.979 51.6269C231.717 51.1369 231.382 51.2939 230.999 52.0859C230.798 52.4999 230.473 52.9209 230.275 53.0219C230.078 53.1229 229.615 53.4959 229.246 53.8499C228.55 54.5199 227.263 55.1179 225.25 55.7069C223.593 56.1929 212.037 56.3669 211.172 55.9189C210.09 55.3599 210.083 55.3019 210.083 46.4999C210.083 37.8719 210.078 37.9239 211.038 37.3279C211.564 37.0009 211.795 36.9899 217.696 37.0359C224.518 37.0889 224.247 37.0419 225.115 38.3169C225.479 38.8509 225.481 38.8519 225.81 38.5239C226.482 37.8509 226.511 34.6039 225.85 33.9429L225.506 33.5989L225.045 34.0289C224.083 34.9259 224.185 34.9129 217.556 34.9689L211.363 35.0219L210.852 34.5529C210.031 33.7989 209.911 31.6759 209.969 18.8329C209.982 15.9349 210.282 15.8439 219.667 15.8979C226.746 15.9399 227.032 15.9779 227.855 17.0019C228.146 17.3639 228.522 17.7039 228.691 17.7579C229.285 17.9459 229.5 18.3339 229.503 19.2199C229.505 20.1449 229.686 20.6109 229.974 20.4329C230.111 20.3479 230.135 15.5369 230.007 13.6409C229.979 13.2219 228.573 13.0979 227.537 13.4239ZM256.915 13.5629C256.765 13.7919 256.532 14.4519 256.397 15.0299C256.262 15.6089 256.054 16.2319 255.936 16.4159C255.817 16.5999 255.56 17.2809 255.364 17.9289C255.168 18.5769 254.831 19.3689 254.614 19.6879C254.398 20.0079 254.016 20.8049 253.765 21.4599C253.515 22.1149 253.181 22.8239 253.022 23.0339C252.711 23.4479 252.296 24.3939 252.004 25.3549C251.903 25.6879 251.677 26.0899 251.501 26.2489C251.325 26.4079 251.019 27.0359 250.821 27.6439C250.623 28.2519 250.247 29.0899 249.986 29.5059C249.725 29.9209 249.359 30.7459 249.173 31.3389C248.986 31.9319 248.609 32.7469 248.334 33.1499C248.058 33.5529 247.833 33.9749 247.833 34.0869C247.833 34.3749 247.169 35.8669 246.907 36.1669C246.787 36.3049 246.488 36.9799 246.243 37.6669C245.998 38.3549 245.631 39.1419 245.428 39.4169C245.225 39.6919 244.853 40.4379 244.6 41.0759C244.347 41.7129 244.006 42.4259 243.841 42.6589C243.677 42.8919 243.343 43.6369 243.1 44.3139C242.857 44.9909 242.519 45.7409 242.35 45.9799C242.18 46.2199 241.843 46.9709 241.599 47.6479C241.356 48.3259 240.972 49.0999 240.747 49.3679C240.521 49.6359 240.214 50.2819 240.066 50.8029C239.917 51.3239 239.628 51.9749 239.425 52.2499C239.221 52.5249 238.918 53.1089 238.752 53.5479C238.586 53.9869 238.254 54.5119 238.014 54.7149C237.775 54.9169 237.413 55.3169 237.21 55.6029C237.008 55.8889 236.618 56.2159 236.343 56.3289C236.069 56.4429 235.799 56.6799 235.743 56.8559C235.588 57.3439 234.98 57.6599 233.936 57.7949C231.641 58.0899 233.235 58.2479 238 58.1969C240.704 58.1689 243.415 58.2099 244.025 58.2909C245.902 58.5379 246.414 58.0609 244.783 57.5849C242.959 57.0519 242.302 54.0939 243.498 51.7989C243.704 51.4059 244.042 50.5819 244.249 49.9679C244.457 49.3549 244.786 48.6509 244.979 48.4049C245.173 48.1579 245.481 47.4599 245.664 46.8529C246.051 45.5669 246.899 44.0899 247.515 43.6299C248.026 43.2489 265.001 43.1519 265.729 43.5259C266.58 43.9619 267.001 44.5709 267.432 45.9829C267.671 46.7659 268.004 47.5809 268.172 47.7949C268.341 48.0089 268.641 48.6869 268.84 49.3009C269.039 49.9139 269.507 51.0399 269.88 51.8009C270.944 53.9739 270.898 55.5129 269.746 56.2679C269.519 56.4169 269.239 56.7359 269.123 56.9769C269.007 57.2179 268.674 57.5279 268.382 57.6659C268.09 57.8039 267.847 57.9809 267.842 58.0589C267.835 58.1699 277.594 58.3619 282.75 58.3519C313.739 58.2939 311.909 58.3789 312.402 56.9729C312.574 56.4839 312.96 55.5579 313.261 54.9169C314.294 52.7119 314.477 51.3849 313.785 51.1199C313.619 51.0559 313.421 51.2899 313.147 51.8749C312.929 52.3409 312.559 52.8409 312.325 52.9859C312.091 53.1309 311.603 53.4989 311.241 53.8039C310.54 54.3929 308.515 55.3369 307.002 55.7779C306.254 55.9969 304.923 56.0599 299.833 56.1199L293.583 56.1939L293.004 55.8009C291.762 54.9599 291.82 55.9639 291.871 36.1909C291.905 23.1969 291.967 18.4959 292.11 18.2499C292.217 18.0669 292.429 17.5609 292.582 17.1269C292.76 16.6199 293.048 16.2069 293.388 15.9709C293.679 15.7699 294.105 15.3859 294.335 15.1199C294.664 14.7389 294.985 14.5929 295.822 14.4419C297.045 14.2219 297.394 13.8399 296.389 13.8219C290.586 13.7149 283.042 13.7479 282.873 13.8799C282.524 14.1529 282.966 14.4999 283.662 14.4999C284.558 14.4999 285.252 14.7879 285.507 15.2639C285.629 15.4919 285.986 15.8369 286.3 16.0309C287.482 16.7609 287.412 15.5809 287.462 35.5809C287.512 55.5159 287.536 55.0029 286.498 56.0419C286.152 56.3879 285.822 56.8559 285.765 57.0819C285.619 57.6639 284.91 57.9719 284.083 57.8139C283.101 57.6249 281.582 57.6409 280.758 57.8489C279.903 58.0639 279.327 57.7899 279.006 57.0129C278.898 56.7549 278.63 56.4609 278.409 56.3599C277.584 55.9839 276.358 54.6329 275.979 53.6819C275.774 53.1689 275.435 52.5409 275.225 52.2849C275.015 52.0289 274.685 51.2789 274.491 50.6179C274.297 49.9569 273.958 49.1499 273.736 48.8249C273.515 48.4989 273.172 47.7489 272.973 47.1579C272.775 46.5669 272.449 45.8579 272.249 45.5829C272.049 45.3079 271.708 44.5959 271.491 43.9999C271.274 43.4039 270.925 42.6619 270.714 42.3499C270.504 42.0389 270.182 41.2999 269.999 40.7079C269.816 40.1159 269.481 39.4109 269.255 39.1419C269.029 38.8729 268.685 38.1119 268.491 37.4519C268.297 36.7909 267.961 35.9869 267.744 35.6669C267.526 35.3459 267.17 34.5579 266.952 33.9169C266.733 33.2749 266.353 32.4559 266.107 32.0959C265.86 31.7359 265.499 30.9109 265.304 30.2619C265.109 29.6139 264.78 28.8799 264.573 28.6309C264.367 28.3819 264.029 27.6689 263.822 27.0469C263.615 26.4249 263.307 25.7269 263.136 25.4959C262.966 25.2639 262.635 24.5259 262.402 23.8549C262.168 23.1839 261.763 22.2859 261.501 21.8589C261.24 21.4319 260.972 20.8579 260.907 20.5829C260.842 20.3079 260.473 19.4829 260.087 18.7499C259.701 18.0169 259.291 17.1169 259.176 16.7499C258.865 15.7599 257.613 13.2839 257.386 13.2099C257.277 13.1749 257.065 13.3329 256.915 13.5629ZM44.044 13.7769C43.974 13.7919 43.692 13.8569 43.417 13.9219L42.917 14.0399L43.5 14.2569C43.821 14.3769 44.5 14.4799 45.01 14.4869C45.879 14.4989 46.664 14.8839 46.668 15.2979C46.668 15.3629 46.997 15.7639 47.4 16.1889C48.54 17.3929 48.5 16.6769 48.5 35.9999C48.5 55.5449 48.553 54.6529 47.312 55.8989C46.866 56.3469 46.5 56.8419 46.5 56.9979C46.5 57.5339 45.944 57.8319 44.904 57.8529C43.761 57.8759 42.61 58.1019 43.333 58.1619C44.433 58.2519 57.22 58.2369 57.369 58.1449C57.745 57.9129 56.362 57.6429 55.717 57.8219C54.764 58.0869 54.696 58.0579 54.483 57.2919C54.357 56.8399 54.026 56.3319 53.57 55.8889C52.592 54.9409 52.648 56.2659 52.702 35.5549L52.75 17.0269L53.134 16.6179C53.737 15.9769 54.912 15.8289 58.549 15.9359C63.788 16.0899 66.024 16.6999 67.925 18.4949C68.389 18.9319 68.927 19.3409 69.123 19.4029C69.474 19.5139 70.167 20.7019 70.167 21.1929C70.167 21.3339 70.318 21.5859 70.504 21.7539C71.688 22.8249 71.708 28.5529 70.534 30.3329C70.383 30.5629 70.098 31.0869 69.901 31.4999C69.558 32.2169 67.883 33.9659 66.955 34.5739C66.061 35.1589 63.336 35.8369 61.501 35.9309C59.848 36.0149 59.1 36.1279 57.62 36.5169C56.94 36.6949 56.927 36.9999 57.599 36.9999C58.685 36.9999 61.076 38.7999 62.222 40.4809C62.573 40.9949 63.041 41.6079 63.263 41.8419C63.485 42.0769 63.667 42.3639 63.667 42.4809C63.667 42.5969 63.948 42.9779 64.292 43.3259C65.119 44.1649 66.074 45.4949 66.611 46.5559C66.85 47.0289 67.38 47.7539 67.787 48.1669C69.196 49.5919 69.46 49.9199 69.854 50.7359C70.332 51.7239 73.665 55.1019 74.612 55.5559C74.963 55.7249 75.475 55.9819 75.75 56.1289C77.178 56.8889 77.851 57.1449 78.886 57.3209C79.51 57.4269 80.602 57.7009 81.313 57.9299C82.381 58.2749 82.869 58.3379 84.136 58.2979C85.953 58.2409 86.184 57.9529 84.51 57.8329C83.307 57.7469 82.851 57.4669 82.839 56.8049C82.835 56.6129 82.499 56.4159 81.747 56.1659C80.726 55.8259 78.5 54.2019 78.5 53.7969C78.5 53.7189 78.144 53.2969 77.708 52.8579C76.568 51.7079 75.34 50.2299 75.063 49.6749C74.931 49.4119 74.523 48.8709 74.155 48.4729C73.787 48.0749 73.17 47.3949 72.784 46.9609C72.399 46.5279 71.849 45.9279 71.562 45.6279C71.275 45.3279 70.883 44.7699 70.689 44.3859C70.496 44.0019 70.149 43.4849 69.919 43.2359C69.688 42.9879 69.299 42.4679 69.055 42.0809C68.81 41.6949 68.37 41.2489 68.076 41.0909C65.811 39.8709 65.846 38.2719 68.163 37.0829C71.745 35.2459 72.148 34.9219 74.171 32.2499C75.095 31.0289 75.301 30.4919 76.001 27.4719L76.375 25.8599L75.922 23.8049C75.353 21.2219 75.059 20.3909 74.469 19.7029C74.211 19.4009 74 19.0779 74 18.9839C74 18.6259 72.025 16.8409 71.317 16.5589C70.913 16.3979 70.171 16.0219 69.667 15.7239C69.022 15.3429 68.165 15.0559 66.782 14.7589C65.7 14.5259 64.676 14.2609 64.506 14.1699C63.768 13.7749 45.687 13.4279 44.044 13.7769ZM351.25 13.7919C349.002 13.8739 348.819 14.1459 350.833 14.4119C351.787 14.5379 353.505 16.0079 354.053 17.1669C354.2 17.4769 354.262 22.1789 354.296 35.6509C354.348 55.9149 354.405 54.8739 353.174 56.0759C352.803 56.4379 352.5 56.8169 352.5 56.9189C352.5 57.4549 352.007 57.7499 350.972 57.8329C350.349 57.8819 349.951 57.9849 350 58.0829C350.091 58.2659 362.106 58.3349 362.833 58.1579C363.208 58.0659 363.185 58.0439 362.6 57.9319C362.2 57.8559 361.772 57.6159 361.488 57.3079C361.235 57.0319 360.965 56.7399 360.888 56.6579C360.812 56.5769 360.468 56.2739 360.124 55.9859C359.779 55.6979 359.448 55.2669 359.388 55.0279C359.328 54.7889 359.138 54.3549 358.966 54.0629C358.462 53.2079 358.578 39.0919 359.095 38.3869C359.902 37.2879 359.306 37.3339 372.75 37.3359C386.033 37.3379 385.465 37.2959 386.074 38.3339C386.406 38.8989 386.417 39.1499 386.417 46.4169C386.417 55.0919 386.428 55.0069 385.16 55.9539C384.705 56.2939 384.333 56.6879 384.333 56.8319C384.333 57.5379 383.825 57.8789 382.912 57.7849C382.127 57.7039 381.667 57.8419 381.667 58.1579C381.667 58.2089 384.895 58.2549 388.84 58.2609C395.27 58.2719 396.008 58.2459 395.962 58.0109C395.922 57.8069 395.675 57.7479 394.83 57.7409C393.45 57.7309 393.055 57.5889 392.749 56.9979C392.613 56.7349 392.359 56.4199 392.184 56.2979C392.009 56.1749 391.69 55.7769 391.475 55.4129L391.083 54.7499V36.1669C391.083 15.6689 391.011 16.9719 392.216 15.7489C393.072 14.8819 393.257 14.7909 395.146 14.3229C395.702 14.1849 395.83 14.0959 395.681 13.9479C395.467 13.7339 382.127 13.6519 381.787 13.8619C381.458 14.0649 382.008 14.4999 382.593 14.4999C383.376 14.4999 383.975 14.7649 384.185 15.2049C384.284 15.4129 384.73 15.8629 385.176 16.2049C386.43 17.1679 386.417 17.0609 386.417 26.1129C386.417 33.8269 386.41 33.9839 386.068 34.4459C385.353 35.4129 385.828 35.3799 372.664 35.3749C359.319 35.3689 360.026 35.4239 359.103 34.3269L358.667 33.8079V26.2579V18.7079L359.239 17.4789C360.072 15.6909 361.031 14.7509 362.272 14.5039C363.76 14.2089 363.892 14.1579 363.691 13.9579C363.529 13.7959 354.472 13.6749 351.25 13.7919ZM111.135 15.1809C111.656 15.3699 112.719 15.6739 113.496 15.8549C114.273 16.0359 115.211 16.3339 115.58 16.5159C116.9 17.1679 118.128 17.9259 118.732 18.4579C119.069 18.7559 119.412 18.9999 119.495 18.9999C119.789 18.9999 122.592 21.7169 123 22.3989C123.229 22.7809 123.613 23.3539 123.854 23.6719C124.094 23.9899 124.456 24.6999 124.658 25.2499C124.86 25.7999 125.129 26.3649 125.256 26.5059C125.65 26.9429 125.985 27.9199 126.177 29.1939C126.278 29.8659 126.557 30.8289 126.796 31.3329C127.683 33.2059 127.616 39.6409 126.697 40.7099C126.559 40.8709 126.344 41.6879 126.22 42.5249C126.013 43.9229 125.737 44.7249 125.083 45.8329C124.947 46.0629 124.61 46.7369 124.333 47.3329C122.435 51.4209 117.435 55.4009 113.138 56.2459C112.374 56.3959 111.375 56.6809 110.917 56.8799C109.569 57.4659 105.73 57.4199 103.973 56.7969C103.27 56.5479 102.184 56.2629 101.559 56.1629C100.524 55.9969 99.485 55.6189 98.833 55.1689C98.696 55.0739 98.171 54.8089 97.667 54.5789C95.917 53.7819 91.833 49.9439 91.833 49.0969C91.833 48.9799 91.675 48.7419 91.482 48.5669C91.099 48.2219 90.167 46.4829 90.167 46.1139C90.167 45.9879 90.02 45.7519 89.84 45.5899C89.414 45.2039 89.049 44.0689 88.822 42.4249C88.722 41.6969 88.503 40.8319 88.336 40.5049C87.477 38.8209 87.4 33.5939 88.207 31.7499C88.447 31.1999 88.725 30.2499 88.825 29.6389C89.038 28.3219 89.375 27.3129 89.806 26.6969C89.979 26.4509 90.243 25.8749 90.394 25.4169C90.545 24.9579 90.799 24.3889 90.959 24.1499C91.119 23.9119 91.49 23.3479 91.784 22.8949C93.643 20.0299 98.457 16.5809 101.417 15.9949C101.967 15.8859 102.859 15.6119 103.401 15.3859C105.302 14.5899 109.225 14.4859 111.135 15.1809ZM257.681 22.6809C258.049 23.0489 258.657 24.2619 258.663 24.6409C258.665 24.7639 258.826 25.0889 259.02 25.3619C259.215 25.6349 259.59 26.5779 259.854 27.4579C260.118 28.3379 260.437 29.1769 260.563 29.3209C260.953 29.7699 261.209 30.3699 261.508 31.5299C261.666 32.1459 261.956 32.8529 262.151 33.1009C262.347 33.3499 262.664 34.0849 262.857 34.7349C263.05 35.3849 263.425 36.2629 263.69 36.6859C263.963 37.1209 264.295 38.0189 264.454 38.7489L264.734 40.0419L264.306 40.4109C263.576 41.0379 250.315 41.1869 249.386 40.5779C248.673 40.1119 248.675 38.8619 249.39 37.8019C249.594 37.4979 249.973 36.6699 250.231 35.9599C250.488 35.2509 250.831 34.5009 250.992 34.2929C251.152 34.0859 251.454 33.3919 251.661 32.7499C251.868 32.1079 252.21 31.2819 252.419 30.9149C252.629 30.5469 252.928 29.7969 253.084 29.2479C253.239 28.6989 253.592 27.8439 253.867 27.3469C254.142 26.8509 254.543 25.8589 254.757 25.1439C255.472 22.7539 255.628 22.5769 257.208 22.3509C257.277 22.3409 257.49 22.4899 257.681 22.6809ZM314.944 48.6109C314.78 48.7759 314.81 50.2989 314.979 50.4039C315.169 50.5209 315.57 49.0899 315.442 48.7559C315.338 48.4859 315.13 48.4249 314.944 48.6109ZM232.775 48.7929C232.701 48.9119 232.618 50.1569 232.651 50.6389C232.687 51.1499 233.077 50.6669 233.25 49.8959C233.482 48.8669 233.173 48.1489 232.775 48.7929ZM132.393 70.2059C132.26 70.4199 132.283 71.1769 132.438 71.7109C132.596 72.2509 132.833 71.8229 132.833 70.9999C132.833 70.1789 132.633 69.8169 132.393 70.2059ZM150.595 70.1479C150.545 70.2289 150.609 70.3829 150.737 70.4889C150.997 70.7049 151.263 70.4569 151.083 70.1669C150.956 69.9599 150.717 69.9509 150.595 70.1479ZM278.456 70.1159C278.414 70.1899 278.432 70.6249 278.495 71.0829C278.619 71.9929 278.809 71.8369 278.876 70.7679C278.913 70.1789 278.649 69.7699 278.456 70.1159Z" fill="white"/>
<path fill-rule="evenodd" clip-rule="evenodd" d="M83.667 71.1919C74.454 71.2509 64.404 71.3799 61.333 71.4779C58.262 71.5749 55.281 71.6579 54.708 71.6609C54.135 71.6639 53.667 71.7309 53.667 71.8089C53.667 71.9529 54.734 72.0389 60.083 72.3219C68.903 72.7899 74.401 72.9249 86.667 72.9729C91.479 72.9919 96.504 73.0859 97.833 73.1819C101.087 73.4169 102.032 73.3059 103.042 72.5719C105.145 71.0429 105.27 71.0519 83.667 71.1919ZM387.583 71.0719C387.492 71.1099 379.842 71.1809 370.583 71.2299C361.325 71.2789 353.525 71.3519 353.25 71.3919C352.975 71.4319 350.52 71.5189 347.794 71.5849C342.487 71.7129 341.583 71.8899 345.289 72.0729C346.551 72.1359 347.883 72.2169 348.25 72.2529C349.064 72.3329 351.581 72.4629 354.917 72.5979C361.444 72.8609 366.74 72.9549 376.357 72.9789C383.473 72.9959 386.965 73.0629 387.324 73.1879C389.009 73.7759 392.333 72.8749 392.333 71.8299C392.333 71.3659 388.398 70.7369 387.583 71.0719ZM1.44602 71.3949C0.635018 71.7019 0.604018 71.7379 0.838018 72.1089C1.54702 73.2329 3.79402 73.4679 7.33302 72.7889C8.69702 72.5269 9.58902 72.4339 9.91702 72.5179C11.836 73.0109 32.673 72.6379 34.458 72.0789C36.125 71.5569 34.512 71.4729 21.25 71.3959C14.283 71.3559 7.12102 71.2849 5.33302 71.2389C2.74802 71.1719 1.95302 71.2039 1.44602 71.3949ZM290.208 71.4209C289.546 71.7019 289.521 72.0259 290.125 72.5089C290.582 72.8749 290.602 72.8759 295.583 72.7689C298.333 72.7089 304.783 72.6429 309.917 72.6219C318.917 72.5849 325.333 72.2509 325.333 71.8189C325.333 71.3689 291.244 70.9819 290.208 71.4209Z" fill="white"/>
</svg>
