<svg width="60" height="60" viewBox="0 0 60 60" fill="none" xmlns="http://www.w3.org/2000/svg">
<path d="M51.2343 8.72268C48.4716 5.9458 45.1812 3.74437 41.5549 2.2468C37.9285 0.749237 34.0389 -0.014478 30.113 0.000207843C13.6627 0.000207843 0.256153 13.3427 0.241085 29.7226C0.241085 34.9688 1.61979 40.0726 4.22275 44.5913L0 60L15.8363 55.8675C20.2153 58.2459 25.1246 59.4903 30.113 59.4863H30.1281C46.5821 59.4863 59.9849 46.1438 60 29.7489C60.0033 25.8416 59.2302 21.9723 57.7252 18.3637C56.2201 14.7551 54.0167 11.4785 51.2343 8.72268ZM30.113 54.4538C25.6649 54.4503 21.2992 53.2589 17.4711 51.0038L16.567 50.4638L7.17227 52.9163L9.68106 43.7926L9.09342 42.8513C6.6065 38.915 5.29124 34.3577 5.3001 29.7076C5.3001 16.1102 16.439 5.01769 30.1281 5.01769C33.3893 5.01187 36.6194 5.64872 39.6322 6.89153C42.645 8.13434 45.3808 9.95852 47.6821 12.2589C49.9908 14.5507 51.8212 17.2747 53.0676 20.2739C54.3141 23.273 54.9521 26.4881 54.9447 29.7339C54.9297 43.3801 43.7908 54.4538 30.113 54.4538ZM43.7305 35.9513C42.9884 35.5801 39.3232 33.7838 38.6338 33.5288C37.9483 33.2851 37.4473 33.1576 36.9576 33.9001C36.4565 34.6388 35.0251 36.3226 34.5957 36.8063C34.1662 37.3051 33.7217 37.3613 32.9759 36.9938C32.2338 36.6188 29.8267 35.8388 26.9789 33.3001C24.7564 31.3314 23.2685 28.8939 22.824 28.1551C22.3945 27.4126 22.7825 27.0151 23.1554 26.6439C23.4832 26.3139 23.8975 25.7739 24.2705 25.3464C24.6472 24.9189 24.7715 24.6039 25.0163 24.1089C25.2612 23.6064 25.1444 23.1789 24.9598 22.8076C24.7715 22.4364 23.2835 18.7726 22.6544 17.2951C22.0517 15.8364 21.4377 16.0389 20.9781 16.0202C20.5487 15.9939 20.0477 15.9939 19.5467 15.9939C19.1684 16.0035 18.7962 16.0907 18.4533 16.2501C18.1104 16.4095 17.8042 16.6376 17.554 16.9201C16.8684 17.6626 14.951 19.4589 14.951 23.1226C14.951 26.7864 17.6256 30.3076 18.0023 30.8064C18.3714 31.3051 23.2534 38.8013 30.7458 42.0263C32.5163 42.7951 33.9101 43.2488 34.9987 43.5938C36.788 44.1638 38.4041 44.0776 39.6924 43.8938C41.1238 43.6763 44.1035 42.0938 44.7325 40.3576C45.3503 38.6176 45.3503 37.1326 45.162 36.8213C44.9774 36.5063 44.4764 36.3226 43.7305 35.9513Z" fill="white"/>
</svg>
